<svg width="309" height="103" viewBox="0 0 309 103" fill="none" xmlns="http://www.w3.org/2000/svg">
<path d="M71.7971 67.4528C71.7971 71.959 70.945 76.2002 69.241 80.1763C67.5369 84.1145 65.2081 87.5605 62.2544 90.5142C59.3007 93.43 55.8358 95.7399 51.8597 97.4439C47.9215 99.148 43.6993 100 39.193 100C34.6868 100 30.4456 99.148 26.4695 97.4439C22.5312 95.7399 19.0853 93.43 16.1316 90.5142C13.2158 87.5605 10.9059 84.1145 9.20184 80.1763C7.49779 76.2002 6.64577 71.959 6.64577 67.4528V18.5467H22.891V67.4528C22.891 69.6869 23.3075 71.7886 24.1406 73.7577C25.0116 75.7268 26.1855 77.4498 27.6623 78.9267C29.1392 80.4035 30.8621 81.5774 32.8312 82.4483C34.8382 83.2814 36.9588 83.698 39.193 83.698C41.4272 83.698 43.5289 83.2814 45.498 82.4483C47.505 81.5774 49.2469 80.4035 50.7237 78.9267C52.2005 77.4498 53.3555 75.7268 54.1886 73.7577C55.0596 71.7886 55.495 69.6869 55.495 67.4528V18.5467H71.7971V67.4528ZM142.174 100H138.425L132.404 91.6502C130.927 92.9756 129.356 94.2252 127.69 95.3991C126.061 96.5351 124.338 97.5386 122.521 98.4096C120.703 99.2426 118.829 99.9053 116.897 100.398C115.004 100.89 113.073 101.136 111.104 101.136C106.825 101.136 102.792 100.341 99.005 98.7504C95.2561 97.1221 91.9616 94.8879 89.1215 92.0478C86.3193 89.1699 84.104 85.7807 82.4757 81.8803C80.8474 77.9421 80.0333 73.6631 80.0333 69.0432C80.0333 64.4612 80.8474 60.2011 82.4757 56.2629C84.104 52.3246 86.3193 48.9165 89.1215 46.0386C91.9616 43.1607 95.2561 40.9075 99.005 39.2792C102.792 37.6509 106.825 36.8368 111.104 36.8368C112.467 36.8368 113.868 36.9504 115.307 37.1776C116.784 37.4048 118.204 37.7835 119.567 38.3136C120.968 38.8059 122.275 39.4686 123.486 40.3017C124.698 41.1347 125.721 42.1572 126.554 43.3689V14.9682H142.174V100ZM126.554 69.0432C126.554 66.9226 126.137 64.8778 125.304 62.9086C124.509 60.9017 123.411 59.1408 122.01 57.6261C120.608 56.0735 118.961 54.8428 117.068 53.934C115.212 52.9873 113.224 52.514 111.104 52.514C108.983 52.514 106.976 52.8926 105.083 53.65C103.227 54.4074 101.599 55.5055 100.198 56.9445C98.8346 58.3456 97.7553 60.0686 96.9601 62.1134C96.1649 64.1583 95.7673 66.4682 95.7673 69.0432C95.7673 71.2774 96.1649 73.398 96.9601 75.405C97.7553 77.4119 98.8346 79.1728 100.198 80.6875C101.599 82.2022 103.227 83.395 105.083 84.266C106.976 85.1369 108.983 85.5724 111.104 85.5724C113.224 85.5724 115.212 85.118 117.068 84.2092C118.961 83.2625 120.608 82.0318 122.01 80.5171C123.411 78.9645 124.509 77.2037 125.304 75.2346C126.137 73.2276 126.554 71.1638 126.554 69.0432ZM212.949 100H209.2L203.179 91.6502C201.702 92.9756 200.131 94.2252 198.464 95.3991C196.836 96.5351 195.113 97.5386 193.295 98.4096C191.478 99.2426 189.603 99.9053 187.672 100.398C185.779 100.89 183.847 101.136 181.878 101.136C177.599 101.136 173.566 100.417 169.78 98.9776C166.031 97.5386 162.736 95.4559 159.896 92.7294C157.094 89.9651 154.879 86.5949 153.25 82.6188C151.622 78.6426 150.808 74.1175 150.808 69.0432C150.808 64.3097 151.622 59.9739 153.25 56.0357C154.879 52.0596 157.094 48.6515 159.896 45.8114C162.736 42.9713 166.031 40.775 169.78 39.2224C173.566 37.632 177.599 36.8368 181.878 36.8368C183.847 36.8368 185.798 37.0829 187.729 37.5752C189.66 38.0675 191.535 38.7491 193.352 39.62C195.17 40.491 196.893 41.5134 198.521 42.6873C200.187 43.8612 201.74 45.1298 203.179 46.493L209.2 39.2792H212.949V100ZM197.328 69.0432C197.328 66.9226 196.912 64.8778 196.079 62.9086C195.283 60.9017 194.185 59.1408 192.784 57.6261C191.383 56.0735 189.736 54.8428 187.842 53.934C185.987 52.9873 183.999 52.514 181.878 52.514C179.758 52.514 177.751 52.8737 175.857 53.5932C174.002 54.3127 172.374 55.373 170.972 56.7741C169.609 58.1752 168.53 59.9171 167.735 61.9998C166.94 64.0447 166.542 66.3925 166.542 69.0432C166.542 71.6939 166.94 74.0607 167.735 76.1434C168.53 78.1882 169.609 79.9112 170.972 81.3123C172.374 82.7134 174.002 83.7737 175.857 84.4932C177.751 85.2127 179.758 85.5724 181.878 85.5724C183.999 85.5724 185.987 85.118 187.842 84.2092C189.736 83.2625 191.383 82.0318 192.784 80.5171C194.185 78.9645 195.283 77.2037 196.079 75.2346C196.912 73.2276 197.328 71.1638 197.328 69.0432Z" fill="#0C4B6F"/>
<path d="M223.682 84.7608C223.295 84.7608 223.101 84.4119 223.101 83.7139C223.101 83.0159 223.488 81.62 224.264 79.526C227.211 79.3709 229.848 79.2158 232.174 79.0607C234.579 78.9056 236.789 78.828 238.805 78.828C240.822 78.7505 242.062 78.7117 242.528 78.7117C243.071 78.6342 243.342 78.8668 243.342 79.4097C243.342 80.8056 242.954 82.2792 242.179 83.8302C239.93 83.9853 236.711 84.1792 232.523 84.4119C228.336 84.567 225.389 84.6833 223.682 84.7608ZM308.801 95.9955C308.034 96.4783 307.225 96.9753 306.373 97.4865C305.521 97.9693 304.64 98.4238 303.732 98.8498C302.851 99.2474 301.928 99.5882 300.963 99.8722C299.997 100.128 299.031 100.256 298.066 100.256C297.981 100.256 297.64 100.256 297.043 100.256C296.475 100.284 295.836 100.298 295.126 100.298C294.416 100.327 293.72 100.341 293.039 100.341C292.357 100.341 291.874 100.312 291.59 100.256L292.485 99.3184L274.678 73.2891C273.655 74.5671 272.59 75.8594 271.483 77.1658C270.375 78.4722 269.069 79.9917 267.563 81.7241C266.086 83.4282 264.326 85.4446 262.281 87.7735C260.236 90.1023 257.765 92.9282 254.868 96.2511C256.004 96.3931 257.041 96.4925 257.978 96.5493C258.944 96.5777 259.796 96.5919 260.534 96.5919C261.301 96.5919 261.954 96.5777 262.494 96.5493C263.062 96.5209 263.545 96.4783 263.942 96.4215C264.397 96.3647 264.78 96.3079 265.092 96.2511C263.644 97.0179 262.352 97.6711 261.216 98.2108C260.08 98.722 259.015 99.1338 258.021 99.4462C257.055 99.7586 256.104 99.9858 255.166 100.128C254.258 100.27 253.292 100.341 252.27 100.341C252.213 100.341 251.9 100.341 251.332 100.341C250.764 100.369 250.111 100.383 249.373 100.383C248.663 100.412 247.967 100.426 247.285 100.426C246.604 100.426 246.135 100.398 245.879 100.341L252.696 95.7399C256.246 91.4798 259.682 87.2765 263.005 83.13C266.356 78.9835 269.637 74.8085 272.846 70.6052L254.357 43.5535C253.477 43.6387 252.497 43.7523 251.418 43.8943C250.338 44.008 249.131 44.1784 247.796 44.4056C249.302 42.9855 250.665 41.9063 251.886 41.1679C253.136 40.4295 254.201 39.8898 255.081 39.549C256.104 39.1514 257.027 38.9384 257.85 38.91C258.844 38.9384 259.938 38.9242 261.131 38.8674C262.323 38.8106 263.474 38.7254 264.581 38.6118C265.717 38.4698 266.74 38.3278 267.649 38.1858C268.586 38.0154 269.296 37.8308 269.779 37.632C268.472 38.626 267.279 39.4638 266.2 40.1455C265.121 40.8271 264.084 41.3809 263.09 41.8069L278.001 63.7039C280.443 60.3242 282.815 56.9587 285.115 53.6074C287.444 50.2561 289.744 46.848 292.016 43.3831C291.193 43.4683 290.241 43.5677 289.162 43.6813C288.111 43.7665 286.975 43.8943 285.754 44.0648C287.288 42.7015 288.679 41.6649 289.929 40.9549C291.179 40.2449 292.258 39.7336 293.167 39.4212C294.217 39.052 295.155 38.8532 295.978 38.8248C296.376 38.8816 296.788 38.91 297.214 38.91C297.64 38.91 298.066 38.91 298.492 38.91C299.401 38.91 300.324 38.8958 301.261 38.8674C302.226 38.8106 303.135 38.7396 303.987 38.6544C304.839 38.5692 305.606 38.4698 306.288 38.3562C306.969 38.2426 307.509 38.1148 307.907 37.9728C306.685 38.8816 305.564 39.6484 304.541 40.2733C303.547 40.8697 302.581 41.3809 301.644 41.8069C300.735 42.2045 299.841 42.5169 298.96 42.7441C298.108 42.9429 297.228 43.0991 296.319 43.2127C294.246 46.138 292.386 48.7651 290.738 51.0939C289.091 53.4228 287.6 55.5245 286.265 57.3989C284.959 59.2733 283.78 60.949 282.729 62.4258C281.678 63.9027 280.713 65.2375 279.832 66.4303L300.068 95.9955C302.141 96.1659 303.803 96.2511 305.052 96.2511C306.359 96.2511 307.31 96.2085 307.907 96.1233C308.247 96.0949 308.546 96.0523 308.801 95.9955Z" fill="#0D3A7E"/>
</svg>
